<?xml version="1.0" standalone="no"?>
<!DOCTYPE svg PUBLIC "-//W3C//DTD SVG 20010904//EN"
 "http://www.w3.org/TR/2001/REC-SVG-20010904/DTD/svg10.dtd">
<svg version="1.0" xmlns="http://www.w3.org/2000/svg"
 width="260.000000pt" height="260.000000pt" viewBox="0 0 260.000000 260.000000"
 preserveAspectRatio="xMidYMid meet">
<metadata>
Created by potrace 1.11, written by Peter Selinger 2001-2013
</metadata>
<g transform="translate(0.000000,260.000000) scale(0.100000,-0.100000)"
fill="#000000" stroke="none">
<path d="M468 2538 c-40 -35 -78 -67 -84 -73 -6 -5 -95 -82 -198 -170 l-186
-159 2 -836 3 -835 310 -1 c171 -1 316 -2 323 -3 9 -1 12 -54 12 -231 l0 -231
212 183 c117 100 219 188 226 195 7 7 33 29 59 50 l46 38 216 0 216 1 135 114
c118 101 171 147 214 185 6 6 54 46 106 90 52 44 97 82 100 85 3 3 37 32 75
65 39 33 72 62 75 65 3 3 32 27 65 55 33 27 71 60 85 73 14 12 46 39 72 60
l47 37 1 653 0 652 -1029 0 -1030 0 -73 -62z m1917 -623 c0 -275 -3 -507 -7
-516 -7 -17 -54 -58 -306 -272 l-122 -104 -215 0 c-175 0 -218 -2 -232 -14
-99 -83 -219 -185 -223 -189 -23 -24 -130 -110 -136 -110 -5 0 -8 70 -7 155 1
112 -2 155 -10 156 -7 0 -117 1 -244 1 l-233 1 0 692 c0 380 2 694 4 696 2 2
393 4 867 4 l863 0 1 -500z"/>
<path d="M1248 2067 c-3 -10 -2 -517 1 -539 1 -5 48 -8 106 -8 93 0 105 2 106
18 0 9 1 134 1 277 l1 260 -106 2 c-72 1 -107 -3 -109 -10z"/>
<path d="M1845 2070 c-2 -3 -3 -128 -3 -278 0 -247 1 -272 16 -273 25 -1 154
-1 179 0 l23 1 -3 277 -2 278 -103 0 c-57 1 -105 -2 -107 -5z"/>
</g>
</svg>
