<svg xmlns="http://www.w3.org/2000/svg" width="13.068" height="9.801" viewBox="0 0 13.068 9.801">
  <path id="chart-line-solid_1_" data-name="chart-line-solid (1)" d="M12.66,72.168H1.634V64.408A.408.408,0,0,0,1.225,64H.408A.408.408,0,0,0,0,64.408v8.576a.817.817,0,0,0,.817.817H12.66a.408.408,0,0,0,.408-.408v-.817A.408.408,0,0,0,12.66,72.168Zm-.817-7.351H8.83A.613.613,0,0,0,8.4,65.862l.827.827L7.351,68.562,5.478,66.69a.816.816,0,0,0-1.155,0L2.57,68.443a.408.408,0,0,0,0,.578l.577.577a.408.408,0,0,0,.578,0L4.9,68.422l1.873,1.873a.816.816,0,0,0,1.155,0l2.45-2.45.827.827a.613.613,0,0,0,1.046-.433V65.225A.408.408,0,0,0,11.843,64.817Z" transform="translate(0 -64)" fill="#a0aec0"/>
</svg>
