<svg xmlns="http://www.w3.org/2000/svg" width="1962.5" height="241.5" viewBox="0 0 1962.5 241.5">
  <g id="Group_16" data-name="Group 16" transform="translate(0 -224.5)" opacity="0.1">
    <g id="Page-1" transform="translate(0 224.5)" opacity="0.26">
      <g id="tic-tac-toe">
        <path id="Combined-Shape" d="M40.25,80.5A40.25,40.25,0,1,0,0,40.25,40.25,40.25,0,0,0,40.25,80.5Zm0-10.062A30.188,30.188,0,1,0,10.063,40.25,30.188,30.188,0,0,0,40.25,70.438ZM208.365,40.25,238.3,10.315,231.184,3.2,201.25,33.135,171.316,3.2,164.2,10.315,194.135,40.25,164.2,70.184l7.116,7.116L201.25,47.365,231.184,77.3l7.116-7.116ZM201.25,241.5A40.25,40.25,0,1,0,161,201.25,40.25,40.25,0,0,0,201.25,241.5Zm0-10.062a30.188,30.188,0,1,0-30.187-30.187A30.188,30.188,0,0,0,201.25,231.438ZM47.365,201.25,77.3,171.316,70.184,164.2,40.25,194.135,10.315,164.2,3.2,171.316,33.135,201.25,3.2,231.184l7.115,7.116L40.25,208.365,70.184,238.3l7.116-7.116Z" fill-rule="evenodd"/>
      </g>
    </g>
    <g id="Page-1-2" data-name="Page-1" transform="translate(338 224.5)" opacity="0.26">
      <g id="tic-tac-toe-2" data-name="tic-tac-toe">
        <path id="Combined-Shape-2" data-name="Combined-Shape" d="M40.25,80.5A40.25,40.25,0,1,0,0,40.25,40.25,40.25,0,0,0,40.25,80.5Zm0-10.062A30.188,30.188,0,1,0,10.063,40.25,30.188,30.188,0,0,0,40.25,70.438ZM208.365,40.25,238.3,10.315,231.184,3.2,201.25,33.135,171.316,3.2,164.2,10.315,194.135,40.25,164.2,70.184l7.116,7.116L201.25,47.365,231.184,77.3l7.116-7.116ZM201.25,241.5A40.25,40.25,0,1,0,161,201.25,40.25,40.25,0,0,0,201.25,241.5Zm0-10.062a30.188,30.188,0,1,0-30.187-30.187A30.188,30.188,0,0,0,201.25,231.438ZM47.365,201.25,77.3,171.316,70.184,164.2,40.25,194.135,10.315,164.2,3.2,171.316,33.135,201.25,3.2,231.184l7.115,7.116L40.25,208.365,70.184,238.3l7.116-7.116Z" fill-rule="evenodd"/>
      </g>
    </g>
    <g id="Page-1-3" data-name="Page-1" transform="translate(663 224.5)" opacity="0.26">
      <g id="tic-tac-toe-3" data-name="tic-tac-toe">
        <path id="Combined-Shape-3" data-name="Combined-Shape" d="M40.25,80.5A40.25,40.25,0,1,0,0,40.25,40.25,40.25,0,0,0,40.25,80.5Zm0-10.062A30.188,30.188,0,1,0,10.063,40.25,30.188,30.188,0,0,0,40.25,70.438ZM208.365,40.25,238.3,10.315,231.184,3.2,201.25,33.135,171.316,3.2,164.2,10.315,194.135,40.25,164.2,70.184l7.116,7.116L201.25,47.365,231.184,77.3l7.116-7.116ZM201.25,241.5A40.25,40.25,0,1,0,161,201.25,40.25,40.25,0,0,0,201.25,241.5Zm0-10.062a30.188,30.188,0,1,0-30.187-30.187A30.188,30.188,0,0,0,201.25,231.438ZM47.365,201.25,77.3,171.316,70.184,164.2,40.25,194.135,10.315,164.2,3.2,171.316,33.135,201.25,3.2,231.184l7.115,7.116L40.25,208.365,70.184,238.3l7.116-7.116Z" fill-rule="evenodd"/>
      </g>
    </g>
    <g id="Page-1-4" data-name="Page-1" transform="translate(1022 224.5)" opacity="0.26">
      <g id="tic-tac-toe-4" data-name="tic-tac-toe">
        <path id="Combined-Shape-4" data-name="Combined-Shape" d="M40.25,80.5A40.25,40.25,0,1,0,0,40.25,40.25,40.25,0,0,0,40.25,80.5Zm0-10.062A30.188,30.188,0,1,0,10.063,40.25,30.188,30.188,0,0,0,40.25,70.438ZM208.365,40.25,238.3,10.315,231.184,3.2,201.25,33.135,171.316,3.2,164.2,10.315,194.135,40.25,164.2,70.184l7.116,7.116L201.25,47.365,231.184,77.3l7.116-7.116ZM201.25,241.5A40.25,40.25,0,1,0,161,201.25,40.25,40.25,0,0,0,201.25,241.5Zm0-10.062a30.188,30.188,0,1,0-30.187-30.187A30.188,30.188,0,0,0,201.25,231.438ZM47.365,201.25,77.3,171.316,70.184,164.2,40.25,194.135,10.315,164.2,3.2,171.316,33.135,201.25,3.2,231.184l7.115,7.116L40.25,208.365,70.184,238.3l7.116-7.116Z" fill-rule="evenodd"/>
      </g>
    </g>
    <g id="Page-1-5" data-name="Page-1" transform="translate(1387 224.5)" opacity="0.26">
      <g id="tic-tac-toe-5" data-name="tic-tac-toe">
        <path id="Combined-Shape-5" data-name="Combined-Shape" d="M40.25,80.5A40.25,40.25,0,1,0,0,40.25,40.25,40.25,0,0,0,40.25,80.5Zm0-10.062A30.188,30.188,0,1,0,10.063,40.25,30.188,30.188,0,0,0,40.25,70.438ZM208.365,40.25,238.3,10.315,231.184,3.2,201.25,33.135,171.316,3.2,164.2,10.315,194.135,40.25,164.2,70.184l7.116,7.116L201.25,47.365,231.184,77.3l7.116-7.116ZM201.25,241.5A40.25,40.25,0,1,0,161,201.25,40.25,40.25,0,0,0,201.25,241.5Zm0-10.062a30.188,30.188,0,1,0-30.187-30.187A30.188,30.188,0,0,0,201.25,231.438ZM47.365,201.25,77.3,171.316,70.184,164.2,40.25,194.135,10.315,164.2,3.2,171.316,33.135,201.25,3.2,231.184l7.115,7.116L40.25,208.365,70.184,238.3l7.116-7.116Z" fill-rule="evenodd"/>
      </g>
    </g>
    <g id="Page-1-6" data-name="Page-1" transform="translate(1721 224.5)" opacity="0.26">
      <g id="tic-tac-toe-6" data-name="tic-tac-toe">
        <path id="Combined-Shape-6" data-name="Combined-Shape" d="M40.25,80.5A40.25,40.25,0,1,0,0,40.25,40.25,40.25,0,0,0,40.25,80.5Zm0-10.062A30.188,30.188,0,1,0,10.063,40.25,30.188,30.188,0,0,0,40.25,70.438ZM208.365,40.25,238.3,10.315,231.184,3.2,201.25,33.135,171.316,3.2,164.2,10.315,194.135,40.25,164.2,70.184l7.116,7.116L201.25,47.365,231.184,77.3l7.116-7.116ZM201.25,241.5A40.25,40.25,0,1,0,161,201.25,40.25,40.25,0,0,0,201.25,241.5Zm0-10.062a30.188,30.188,0,1,0-30.187-30.187A30.188,30.188,0,0,0,201.25,231.438ZM47.365,201.25,77.3,171.316,70.184,164.2,40.25,194.135,10.315,164.2,3.2,171.316,33.135,201.25,3.2,231.184l7.115,7.116L40.25,208.365,70.184,238.3l7.116-7.116Z" fill-rule="evenodd"/>
      </g>
    </g>
  </g>
</svg>
